# xmcd
#
# Track frame offsets: 
#        151
#        13663
#        30611
#        47171
#        62800
#        73674
#        87065
#        105763
#        116284
#        128405
#        144936
#        158939
#        166927
#        181862
#        195163
#        207663
#        223330
#        238143
#        253333
#        263915
#
# Disc length: 3777 seconds
#
# Revision: 0
# Processed by: cddbd v1.5.2PL0 Copyright (c) Steve Scherf et al.
# Submitted via: ExactAudioCopy v0.99pb5
#
DISCID=150ebf14
DTITLE=Various Artist - Boleros de Oro, Vol 4
DYEAR=2006
DGENRE=Blues
TTITLE0=¿Como fue?
TTITLE1=Que pena me da
TTITLE2=Oh, vida
TTITLE3=Contigo en la distancia
TTITLE4=Si te contara
TTITLE5=Imagenes
TTITLE6=Tu, mi delirio
TTITLE7=Si me comprendieras
TTITLE8=Tu no sospechas
TTITLE9=Tu me acostumbraste
TTITLE10=Añorado encuentro
TTITLE11=Tu, mi desengaño
TTITLE12=Amor fugaz
TTITLE13=¿Que te hace pensar?
TTITLE14=En el balcon aquel
TTITLE15=Hoy como ayer
TTITLE16=La gloria eres tu
TTITLE17=Mi ayer
TTITLE18=Tu, mi rosa azul
TTITLE19=Quedate este bolero
EXTD=
EXTT0=
EXTT1=
EXTT2=
EXTT3=
EXTT4=
EXTT5=
EXTT6=
EXTT7=
EXTT8=
EXTT9=
EXTT10=
EXTT11=
EXTT12=
EXTT13=
EXTT14=
EXTT15=
EXTT16=
EXTT17=
EXTT18=
EXTT19=
PLAYORDER=
